<?xml version="1.0" standalone="no"?>
<!DOCTYPE svg PUBLIC "-//W3C//DTD SVG 20010904//EN"
 "http://www.w3.org/TR/2001/REC-SVG-20010904/DTD/svg10.dtd">
<svg version="1.0" xmlns="http://www.w3.org/2000/svg"
 width="1563.000000pt" height="1563.000000pt" viewBox="0 0 1563.000000 1563.000000"
 preserveAspectRatio="xMidYMid meet">

<g transform="translate(0.000000,1563.000000) scale(0.100000,-0.100000)"
fill="#000000" stroke="none">
<path d="M7320 15223 c-347 -25 -565 -50 -820 -94 -1407 -241 -2683 -860
-3735 -1812 -292 -264 -618 -608 -850 -897 -615 -768 -1073 -1653 -1344 -2595
-430 -1500 -377 -3150 149 -4610 310 -858 744 -1604 1354 -2325 149 -176 571
-604 751 -762 448 -392 923 -721 1431 -991 861 -457 1730 -721 2749 -834 236
-26 1293 -27 1530 0 732 81 1354 234 2008 493 1097 435 2101 1154 2903 2079
555 641 1023 1427 1322 2220 233 622 369 1200 448 1910 26 231 32 1105 9 1366
-127 1497 -669 2866 -1593 4029 -499 627 -1085 1164 -1752 1605 -1085 718
-2336 1135 -3650 1215 -149 9 -799 11 -910 3z m945 -454 c1080 -76 2125 -398
3040 -934 1456 -853 2578 -2219 3115 -3790 258 -757 380 -1492 380 -2295 0
-1774 -639 -3423 -1836 -4740 -1145 -1259 -2715 -2061 -4404 -2250 -289 -32
-439 -40 -790 -40 -539 0 -896 34 -1384 131 -1148 228 -2214 736 -3108 1481
-607 506 -1156 1143 -1545 1793 -571 954 -887 1949 -985 3100 -19 230 -16 885
5 1115 72 763 226 1406 492 2060 551 1354 1531 2524 2770 3304 1061 670 2244
1031 3530 1080 137 5 563 -4 720 -15z"/>
<path d="M7310 13441 l-995 -6 -75 -36 c-41 -20 -109 -61 -150 -90 -70 -51
-670 -442 -1125 -734 -110 -71 -400 -259 -645 -418 -245 -160 -596 -387 -780
-505 -184 -117 -355 -233 -378 -255 -24 -23 -55 -64 -69 -91 -22 -44 -25 -59
-21 -126 4 -66 11 -90 55 -180 58 -122 125 -221 203 -300 74 -76 124 -108 190
-120 39 -8 330 -6 1010 5 1739 28 1801 30 1939 80 114 40 325 167 961 576 140
91 271 175 291 187 l37 22 193 -123 c360 -230 461 -298 633 -426 241 -180 339
-242 467 -291 53 -20 67 -21 1109 -20 630 0 1178 -4 1360 -11 358 -13 438 -7
534 40 136 66 271 237 361 455 36 87 37 91 33 200 -4 137 -13 152 -135 228
-49 30 -423 260 -833 513 -1013 623 -1782 1105 -2025 1270 -87 58 -234 130
-300 145 -64 15 -539 18 -1845 11z m1797 -342 c83 -25 165 -70 292 -159 242
-169 1438 -917 2360 -1476 l164 -99 -1149 -3 -1149 -3 -25 33 c-50 67 -103
106 -306 228 -115 68 -337 207 -494 309 -157 101 -436 282 -620 401 -765 495
-1088 705 -1145 744 l-60 41 745 6 c410 3 874 4 1032 2 255 -3 294 -5 355 -24z
m-2572 -79 c50 -37 320 -216 600 -397 281 -181 704 -455 940 -608 237 -153
484 -312 550 -355 66 -43 183 -112 260 -155 249 -139 362 -215 438 -292 l37
-39 -80 -113 c-43 -62 -82 -121 -85 -132 -4 -10 -10 -19 -13 -19 -11 0 -48 27
-132 95 -102 84 -165 125 -448 297 -134 80 -354 218 -489 305 -134 87 -382
247 -551 356 -361 233 -391 254 -542 368 -231 174 -350 244 -494 288 -83 25
-190 28 -267 5 -100 -30 -439 -241 -1168 -727 -514 -343 -1101 -725 -1311
-855 -58 -35 -125 -80 -148 -100 -24 -19 -47 -31 -50 -25 -4 5 -40 57 -80 115
-40 58 -79 112 -87 118 -8 7 -15 16 -15 21 0 4 33 27 73 50 150 88 227 137
397 254 96 67 580 383 1075 704 495 321 985 641 1088 711 104 71 227 149 275
173 103 54 99 54 227 -43z m-54 -737 c79 -60 210 -147 379 -250 231 -143 600
-387 593 -393 -12 -10 -569 -366 -708 -452 -318 -197 -381 -236 -400 -245 -12
-6 -255 -13 -625 -17 -333 -4 -816 -11 -1074 -16 -258 -6 -471 -8 -473 -6 -2
2 46 36 107 75 148 96 705 458 1175 765 209 136 448 299 530 362 189 145 338
232 401 233 11 1 54 -24 95 -56z m5507 -1315 c-35 -49 -50 -63 -69 -62 -13 1
-109 7 -214 14 -148 10 -234 10 -386 1 -115 -6 -513 -11 -963 -11 l-766 0 30
60 30 60 1191 0 1190 0 -43 -62z"/>
<path d="M4971 9869 c-94 -11 -264 -52 -356 -85 -391 -140 -742 -458 -925
-838 -121 -253 -179 -577 -151 -848 41 -404 207 -756 490 -1038 213 -212 433
-339 714 -409 l112 -28 272 -1994 c149 -1097 281 -2058 292 -2135 15 -112 26
-155 50 -202 56 -111 159 -189 280 -212 74 -14 4028 -14 4101 0 129 24 229 99
285 213 l35 72 381 2790 c302 2215 379 2803 375 2854 -12 134 -98 254 -226
315 l-65 31 -1909 5 -1910 5 -13 95 c-66 465 -330 886 -719 1148 -159 107
-390 202 -593 243 -111 23 -401 33 -520 18z m425 -254 c302 -52 544 -176 760
-390 161 -161 275 -340 342 -540 29 -89 58 -217 64 -285 l3 -35 -137 -3 -136
-3 -7 43 c-39 246 -155 468 -331 638 -151 145 -307 232 -514 288 -125 33 -357
37 -489 9 -439 -95 -773 -424 -873 -859 -27 -118 -29 -344 -5 -455 79 -351
297 -633 610 -788 l94 -47 17 -127 c9 -69 19 -136 22 -148 6 -30 -5 -29 -102
3 -395 129 -712 449 -856 864 -52 148 -69 243 -75 415 -8 255 30 433 142 660
76 156 160 269 288 392 215 205 467 326 787 376 67 11 315 6 396 -8z m-41
-520 c237 -49 448 -202 577 -418 42 -70 91 -202 103 -274 l7 -42 -539 -3 -538
-3 -57 -27 c-118 -55 -206 -171 -227 -298 -10 -57 -7 -95 22 -300 19 -129 32
-236 31 -238 -5 -8 -64 30 -125 81 -125 104 -232 273 -281 444 -32 112 -32
333 0 446 80 279 265 487 526 591 38 16 97 34 130 41 85 19 281 18 371 0z
m-66 -1052 c6 -43 161 -1185 346 -2538 184 -1353 342 -2487 350 -2520 22 -80
54 -133 114 -188 62 -55 120 -83 202 -97 45 -7 510 -10 1544 -8 l1480 3 54 23
c115 49 202 139 234 243 10 30 174 1202 365 2604 l348 2550 119 3 c99 2 126
-1 155 -15 48 -25 80 -76 80 -129 0 -24 -169 -1282 -376 -2796 -284 -2085
-379 -2760 -393 -2783 -9 -16 -32 -40 -51 -52 l-33 -23 -2021 0 c-1935 0
-2023 1 -2056 18 -73 38 -44 -142 -456 2880 l-377 2773 21 45 c33 67 76 84
223 84 l117 0 11 -77z m4785 50 c-7 -39 -134 -979 -134 -992 0 -8 -609 -11
-2135 -11 l-2135 0 -5 23 c-5 25 -135 979 -135 996 0 8 641 11 2275 11 l2274
0 -5 -27z m-174 -1265 c0 -6 -115 -856 -255 -1887 -199 -1458 -260 -1886 -275
-1919 -15 -33 -31 -48 -63 -62 -41 -19 -83 -20 -1504 -20 -1009 0 -1470 3
-1490 11 -46 17 -81 58 -92 108 -6 25 -123 874 -261 1886 -137 1012 -252 1852
-255 1868 l-4 27 2099 0 c1598 0 2100 -3 2100 -12z"/>
<path d="M6920 6417 c-98 -22 -149 -60 -323 -236 -207 -209 -222 -237 -222
-391 0 -157 14 -181 234 -401 190 -190 223 -212 338 -232 44 -8 78 -8 121 0
113 21 156 51 340 237 213 214 227 238 227 397 0 156 -19 190 -233 402 -140
139 -177 171 -232 196 -78 35 -170 46 -250 28z m143 -251 c18 -7 98 -81 179
-162 211 -215 211 -225 -1 -432 -75 -74 -149 -142 -166 -153 -33 -21 -95 -25
-128 -8 -12 6 -88 77 -170 158 -220 218 -220 224 -5 438 79 78 157 149 173
157 37 20 76 20 118 2z"/>
<path d="M8547 5669 c-126 -30 -229 -125 -276 -252 -19 -53 -21 -77 -21 -296
0 -263 7 -307 62 -394 38 -59 93 -107 166 -144 l57 -28 259 -3 c246 -3 263 -2
320 18 122 44 205 129 246 250 20 60 21 80 18 314 l-3 251 -31 65 c-39 83
-106 150 -192 192 l-66 33 -251 2 c-137 1 -267 -2 -288 -8z m509 -255 c18 -9
44 -33 56 -53 22 -34 23 -45 23 -246 0 -193 -2 -213 -20 -245 -12 -19 -36 -43
-55 -55 -32 -18 -52 -20 -250 -20 -209 0 -216 1 -248 23 -63 45 -67 64 -67
297 0 201 1 212 23 246 39 63 61 69 295 69 172 0 215 -3 243 -16z"/>
<path d="M7435 4573 c-191 -50 -391 -110 -432 -129 -69 -33 -154 -126 -184
-201 -18 -44 -23 -78 -23 -143 -1 -74 7 -110 57 -284 66 -225 81 -259 145
-328 66 -70 154 -110 257 -116 74 -4 95 0 293 57 117 33 231 70 254 82 96 49
179 168 197 284 12 78 4 125 -60 348 -59 209 -80 256 -144 321 -69 71 -159
110 -260 113 -44 1 -89 -1 -100 -4z m162 -263 c44 -26 53 -47 113 -259 55
-193 57 -225 24 -276 -25 -38 -69 -57 -271 -114 -277 -79 -288 -72 -372 222
-60 208 -63 257 -20 304 35 36 47 41 229 94 184 53 248 59 297 29z"/>
</g>
</svg>
