<?xml version="1.0" standalone="no"?>
<!DOCTYPE svg PUBLIC "-//W3C//DTD SVG 20010904//EN"
 "http://www.w3.org/TR/2001/REC-SVG-20010904/DTD/svg10.dtd">
<svg version="1.0" xmlns="http://www.w3.org/2000/svg"
 width="100.000000pt" height="100.000000pt" viewBox="0 0 100.000000 100.000000"
 preserveAspectRatio="xMidYMid meet">

<g transform="translate(0.000000,100.000000) scale(0.100000,-0.100000)"
fill="#000000" stroke="none">
<path d="M105 888 c-3 -7 13 -179 34 -381 32 -298 43 -372 57 -388 16 -18 34
-19 304 -19 270 0 288 1 304 19 14 16 25 90 57 388 21 202 37 374 34 381 -7
18 -783 18 -790 0z m750 -65 c-3 -21 -16 -141 -30 -267 -34 -323 -26 -316
-325 -316 -299 0 -291 -7 -325 316 -14 126 -27 246 -30 267 l-5 37 360 0 360
0 -5 -37z"/>
<path d="M545 530 c-32 -64 -62 -69 -67 -12 l-3 37 -95 0 -95 0 -3 -37 c-3
-34 -6 -38 -31 -38 -28 0 -28 -1 -24 -52 12 -143 21 -148 273 -148 252 0 261
5 273 148 3 43 1 52 -12 52 -9 0 -21 9 -26 21 -8 18 -130 79 -157 79 -4 0 -19
-22 -33 -50z m118 -27 c30 -15 30 -27 0 -86 -15 -30 -27 -30 -86 0 -30 15 -30
27 0 86 15 30 27 30 86 0z m-223 -43 l0 -60 -60 0 -60 0 0 60 0 60 60 0 60 0
0 -60z"/>
</g>
</svg>
